<svg xmlns="http://www.w3.org/2000/svg" viewBox="0 0 1398.81 1229.11"><title>Fichier 3Logo blanc svg</title><g id="Calque_2" data-name="Calque 2"><g id="Calque_1-2" data-name="Calque 1"><path d="M0,770.82,98.85,670.48,199.19,770.82,98.85,869.67Z"/><path d="M1398.81,896.62c0,229.15-380.4,332.49-669.45,332.49-173.72,0-356.43-44.94-356.43-175.23,0-52.42,34.44-95.85,88.36-124.31-50.93-24-88.36-65.89-88.36-128.79,0-80.88,67.39-142.28,190.19-188.71-74.88-50.92-121.3-125.8-121.3-220.15,0-187.21,185.7-298,402.87-298,86.86,0,169.23,18,236.62,52.41,80.87-89.86,158.75-164.74,313-142.28,18,80.88-25.46,128.81-109.33,107.84-74.88-9-100.34-25.46-179.72,46.43,85.37,50.91,142.28,130.29,142.28,233.63,0,187.2-187.2,298-402.86,298C754.82,690,671,670.48,602.06,636,519.69,684,489.74,722.9,489.74,779.81c0,49.42,33,97.35,115.32,97.35,238.13,0,393.88-140.78,593.07-140.78C1315,736.38,1398.81,790.29,1398.81,896.62Zm-163.24,0c0-52.41-31.45-98.84-113.82-98.84C957,797.78,787.78,952,575.11,952a295.82,295.82,0,0,1-82.37-12c-49.43,28.45-71.89,62.9-71.89,104.83,0,92.86,137.78,131.8,289,131.8C954,1176.69,1235.57,1068.86,1235.57,896.62ZM636.51,391.92c0,163.24,76.38,269.58,208.18,269.58s206.67-106.34,206.67-269.58S976.48,122.34,844.69,122.34,636.51,228.68,636.51,391.92Z"/></g></g></svg>